<svg width="997" height="709" viewBox="0 0 997 709" fill="none" xmlns="http://www.w3.org/2000/svg">
    <path d="M111.667 639.045L111.353 638.525L0.929688 456.209L111.667 273.361L165.348 305.877L93.3219 424.807H230.537V487.576H93.2856L165.336 606.542L111.655 639.058L111.667 639.045ZM2.34552 456.209L112.079 637.388L163.69 606.13L91.1558 486.365H229.339V426.017H91.18L163.69 306.288L112.079 275.031L2.34552 456.209Z" fill="#25325F"/>
    <path d="M372.81 817.912L319.129 785.397L319.444 784.876L391.155 666.467H253.94V603.698H391.192L319.141 484.732L372.822 452.216L373.137 452.736L483.56 635.064L372.822 817.912H372.81ZM320.787 784.997L372.398 816.254L482.132 635.076L372.398 453.898L320.787 485.155L393.321 604.92H255.138V665.269H393.297L320.787 784.997Z" fill="#25325F"/>
    <path d="M381.595 366.177L381.28 365.656L270.857 183.328L381.595 0.480225L435.276 32.996L363.25 151.926H500.464V214.695H363.213L435.264 333.661L381.583 366.177H381.595ZM272.273 183.328L382.006 364.507L433.618 333.249L361.084 213.485H499.266V153.136H361.108L433.618 33.4074L382.006 2.15019L272.273 183.328Z" fill="#25325F"/>
    <path d="M614.591 639.045L614.276 638.525L503.853 456.197L614.591 273.349L668.271 305.865L667.957 306.385L596.245 424.795H733.46V487.563H596.209L668.259 606.53L614.579 639.045H614.591ZM505.269 456.209L615.002 637.387L666.613 606.13L594.079 486.365H732.262V426.017H594.103L666.613 306.288L615.002 275.031L505.269 456.209Z" fill="#25325F"/>
    <path d="M875.721 817.912L822.04 785.397L822.355 784.876L894.066 666.467H756.852V603.698H894.103L822.053 484.732L875.733 452.216L876.048 452.736L986.471 635.064L986.277 635.379L875.721 817.912ZM823.71 784.997L875.322 816.254L985.055 635.076L875.322 453.898L823.71 485.155L896.245 604.92H758.062V665.269H896.22L823.71 784.997Z" fill="#25325F"/>
    <path d="M884.519 366.177L884.204 365.656L773.781 183.328L884.519 0.480225L938.199 32.996L866.173 151.926H1003.39V214.695H866.137L938.187 333.661L884.507 366.177H884.519ZM775.197 183.328L884.93 364.507L936.542 333.249L863.995 213.485H1002.18V153.136H864.019L936.529 33.4074L884.918 2.15019L775.185 183.328H775.197Z" fill="#25325F"/>
</svg>
