<svg width="13" height="13" viewBox="0 0 13 13" fill="none" xmlns="http://www.w3.org/2000/svg">
<path id="Vector" d="M9.43877 0H3.55914C1.59403 0 0 1.59403 0 3.56018V9.43982C0 11.406 1.59403 13 3.56018 13H9.43982C11.406 13 13 11.406 13 9.43982V3.56018C12.999 1.59403 11.406 0 9.43877 0ZM4.04832 9.62378L2.94975 8.95795L4.45807 6.46707H1.58358V5.18244H4.45807L2.9487 2.69052L4.04728 2.02468L6.34896 5.82423L4.04728 9.62378H4.04832ZM11.4081 7.81756H8.53357L10.0429 10.3095L8.94436 10.9753L6.64268 7.17577L8.94436 3.37622L10.0429 4.04205L8.53461 6.53293H11.4091V7.81756H11.4081Z" fill="#E94271"/>
</svg>
