<svg width="88" height="30" viewBox="0 0 88 30" fill="none" xmlns="http://www.w3.org/2000/svg">
<g id="Laag_1" clip-path="url(#clip0_2029_29)">
<path id="Vector" d="M21.7097 0H8.18621C3.66637 0 0 3.67884 0 8.21647V21.7859C0 26.3236 3.66637 30.0024 8.18862 30.0024H21.7121C26.2344 30.0024 29.9007 26.3236 29.9007 21.7859V8.21647C29.8983 3.67884 26.2344 0 21.7097 0ZM9.31137 22.2105L6.78458 20.6738L10.2538 14.9252H3.64232V11.9604H10.2538L6.78218 6.20939L9.30896 4.67272L14.603 13.4416L9.30896 22.2105H9.31137ZM26.2392 18.042H19.6277L23.0993 23.793L20.5725 25.3297L15.2785 16.5608L20.5725 7.79189L23.0993 9.32856L19.6301 15.0772H26.2416V18.042H26.2392Z" fill="#E94271"/>
<path id="Vector_2" d="M42.0177 26.0413C40.1328 26.0413 38.6759 25.735 37.3825 25.1246C36.0866 24.5119 35.2379 23.6869 34.56 22.6448C33.8844 21.6026 33.5454 20.4037 33.5454 19.0479H38.1157C38.1157 19.5835 38.2624 20.0804 38.5581 20.5388C38.8538 20.9971 39.1712 21.3662 39.7794 21.6436C40.3877 21.921 41.044 22.0248 42.0153 22.0585C42.6452 22.0803 43.2198 21.9428 43.8088 21.7136C44.3979 21.4844 44.8474 21.1636 45.1504 20.7535C45.4557 20.3434 45.6072 19.8705 45.6072 19.335C45.6072 18.6668 45.3211 18.1361 44.7513 17.7453C44.1791 17.3545 43.2559 17.1012 41.9817 16.9854L40.4093 16.8696C38.3345 16.679 36.6781 16.0253 35.4399 14.9059C34.2018 13.789 33.5839 12.303 33.5839 10.4479C33.5839 9.09216 33.9036 7.92699 34.5407 6.9524C35.1778 5.97781 36.0698 5.22757 37.2118 4.70168C38.3538 4.17579 39.7073 3.91284 41.2676 3.91284C42.8279 3.91284 44.583 4.19991 45.7538 4.77164C46.9246 5.34578 47.8238 6.14427 48.4537 7.16469C49.0812 8.18753 49.3961 9.37682 49.3961 10.7326H44.8258C44.8258 10.2163 44.7008 9.7435 44.4531 9.3141C44.2055 8.8847 43.8401 8.53973 43.3544 8.28161C42.8688 8.02349 41.9913 7.89322 41.2676 7.89322C40.5824 7.89322 40.0054 8.00419 39.539 8.22371C39.0726 8.44324 38.724 8.74961 38.4956 9.14041C38.2672 9.53121 38.1518 9.96784 38.1518 10.4431C38.1518 11.0172 38.361 11.5238 38.7793 11.9629C39.1976 12.4019 39.8828 12.66 40.8349 12.7372L42.4336 12.8796C43.9555 13.0122 45.2994 13.3427 46.4606 13.8686C47.6219 14.3945 48.5306 15.111 49.1894 16.018C49.8457 16.9251 50.1751 18.0299 50.1751 19.3278C50.1751 20.6256 49.8265 21.8414 49.1317 22.8522C48.4369 23.863 47.4512 24.6494 46.1745 25.2018C44.8979 25.7567 43.78 26.0341 42.0105 26.0341L42.0177 26.0413Z" fill="#24325F"/>
<path id="Vector_3" d="M62.1216 26.0414C60.1598 26.0414 58.4985 25.6675 57.1378 24.9245C55.777 24.179 54.7432 23.1297 54.0388 21.7715C53.3344 20.4158 52.981 18.8092 52.981 16.9565V4.54492H57.6643V17.1277C57.6643 18.0444 57.8398 18.8429 58.1932 19.5208C58.5442 20.1987 59.0491 20.7197 59.7078 21.084C60.3642 21.4459 61.1696 21.6292 62.1216 21.6292C63.0737 21.6292 63.8839 21.4483 64.5498 21.084C65.2158 20.7221 65.7159 20.2059 66.0501 19.5353C66.3818 18.8671 66.5501 18.0637 66.5501 17.1277V4.54492H71.2623V16.9541C71.2623 18.8067 70.9089 20.4134 70.2045 21.7691C69.5 23.1273 68.4711 24.1766 67.1199 24.9221C65.7664 25.6675 64.1003 26.039 62.1216 26.039V26.0414Z" fill="#24325F"/>
<path id="Vector_4" d="M79.4605 21.5713V16.9951H87.3438V13.0967H79.4605V8.44328H88.0001V4.54492H74.8901V25.4697H88.0001V21.5713H79.4605Z" fill="#24325F"/>
</g>
<defs>
<clipPath id="clip0_2029_29">
<rect width="88" height="30" fill="white"/>
</clipPath>
</defs>
</svg>
